<svg xmlns="http://www.w3.org/2000/svg" viewBox="0 4 66 56">
	<path d="M 8 18 a 6 6 90 1 0 0 -12 a 6 6 90 1 0 0 12 z M 24 8 c -2.2125 0 -4 1.7875 -4 4 s 1.7875 4 4 4 H 60 c 2.2125 0 4 -1.7875 4 -4 s -1.7875 -4 -4 -4 H 24 z m 0 20 c -2.2125 0 -4 1.7875 -4 4 s 1.7875 4 4 4 H 60 c 2.2125 0 4 -1.7875 4 -4 s -1.7875 -4 -4 -4 H 24 z m 0 20 c -2.2125 0 -4 1.7875 -4 4 s 1.7875 4 4 4 H 60 c 2.2125 0 4 -1.7875 4 -4 s -1.7875 -4 -4 -4 H 24 z M 8 58 a 6 6 90 1 0 0 -12 a 6 6 90 1 0 0 12 z m 6 -26 a 6 6 90 1 0 -12 0 a 6 6 90 1 0 12 0 z" stroke="none" stroke-width="2" fill="#696969"/>
</svg>
