<svg xmlns="http://www.w3.org/2000/svg" width="151.622" height="141.827" viewBox="0 0 151.622 141.827">
  <path id="Path_1" data-name="Path 1" d="M149.131,115.847c-.956.767-.3,5.731,1.406,12.459a105.857,105.857,0,0,0,10.037,24.878c8.493,15.045,16.639,21.591,24.44,23.4,7.688,1.777,15.471-1.021,23.009-4.767,2.143-1.064,2.736-3.007,2.208-5.466-.8-3.712-3.622-8.389-7.667-13.4a128.021,128.021,0,0,0-15.711-15.883c-15.494-13.355-33.366-24.473-37.722-21.219Zm14.628-50.626a3.534,3.534,0,1,1,1.44,6.919c-5.2,1.1-8.994,3.053-11.49,5.795a15.4,15.4,0,0,0-3.718,8.252c6.666,3.981,11.286,12.154,11.286,18.709a9.745,9.745,0,0,1-1.959,6.2c9.512,3.656,21.564,11.494,32.158,20.626a134.977,134.977,0,0,1,16.6,16.795c4.7,5.82,8.035,11.495,9.08,16.36,1.244,5.8-.39,10.489-6,13.274-8.769,4.356-17.972,7.575-27.717,5.321a30.708,30.708,0,0,1-10.459-4.685,38.166,38.166,0,0,1-7.91,17.138,30.167,30.167,0,0,1-46.668,0,38.156,38.156,0,0,1-7.91-17.138,30.692,30.692,0,0,1-10.459,4.685c-9.745,2.254-18.948-.965-27.717-5.321-5.608-2.785-7.242-7.477-6-13.274,1.045-4.865,4.378-10.54,9.078-16.36a135.029,135.029,0,0,1,16.594-16.794c10.6-9.132,22.65-16.971,32.162-20.627a9.753,9.753,0,0,1-1.96-6.2c0-6.555,4.619-14.726,11.286-18.707a15.387,15.387,0,0,0-3.718-8.254c-2.5-2.742-6.293-4.7-11.49-5.795a3.534,3.534,0,1,1,1.44-6.919c6.727,1.42,11.779,4.106,15.283,7.952a21.873,21.873,0,0,1,5.251,10.688,14.569,14.569,0,0,1,2.982,0,21.884,21.884,0,0,1,5.253-10.688c3.5-3.845,8.555-6.532,15.283-7.952Zm-13.133,84.014H132.84c-1.159,2.483-2.412,4.943-3.75,7.317h25.286c-1.338-2.374-2.591-4.834-3.75-7.317Zm15.986,24.184q-1.243-1.259-2.489-2.694h-44.78q-1.244,1.434-2.489,2.694a40.112,40.112,0,0,0,.709,4.621H165.9a40.112,40.112,0,0,0,.709-4.621Zm-33.683-45.113c1.7-6.728,2.363-11.692,1.406-12.459-4.357-3.254-22.23,7.867-37.725,21.221A127.85,127.85,0,0,0,80.9,152.949c-4.045,5.009-6.87,9.686-7.667,13.4-.527,2.459.066,4.4,2.209,5.466,7.538,3.746,15.321,6.544,23.009,4.767,7.8-1.805,15.946-8.353,24.44-23.4a105.9,105.9,0,0,0,10.037-24.878Zm26.017,63.907H124.52a23.144,23.144,0,0,0,34.426,0Z" transform="translate(-65.922 -65.146)" fill="#333" fill-rule="evenodd"/>
</svg>
