<svg xmlns="http://www.w3.org/2000/svg" xmlns:xlink="http://www.w3.org/1999/xlink" version="1.1" x="0px" y="0px" viewBox="0 0 100 125" style="enable-background:new 0 0 100 100;" xml:space="preserve"><path d="M29.1118164,78.3330078h41.7763672c0.5522461,0,1-0.4477539,1-1V22.6669922c0-0.5522461-0.4477539-1-1-1H29.1118164  c-0.5522461,0-1,0.4477539-1,1v54.6660156C28.1118164,77.8852539,28.5595703,78.3330078,29.1118164,78.3330078z   M30.1118164,23.6669922h39.7763672v52.6660156H30.1118164V23.6669922z"/><path d="M16.5795898,85c2.2055664,0,4,1.7944336,4,4c0,0.5522461,0.4477539,1,1,1h6.6499023  c0.4838867,0,0.8979492-0.3461914,0.9838867-0.8222656c0.3354492-1.8535156,1.9433594-3.1992188,3.8232422-3.1992188  s3.4882812,1.3457031,3.8237305,3.199707C36.9462891,89.6538086,37.3608398,90,37.8442383,90h7.3486328  c0.4838867,0,0.8979492-0.3461914,0.9838867-0.8222656C46.512207,87.3242188,48.1201172,85.9785156,50,85.9785156  s3.487793,1.3457031,3.8232422,3.1992188C53.9091797,89.6538086,54.3232422,90,54.8071289,90h7.3486328  c0.4833984,0,0.8979492-0.3461914,0.9838867-0.8217773c0.3354492-1.8540039,1.9438477-3.199707,3.8237305-3.199707  s3.487793,1.3457031,3.8232422,3.1992188C70.8725586,89.6538086,71.2866211,90,71.7705078,90h6.6499023c0.5522461,0,1-0.4477539,1-1  c0-2.2055664,1.7944336-4,4-4c0.5522461,0,1-0.4477539,1-1v-5.2290039c0-0.4980469-0.3666992-0.9204102-0.8603516-0.9902344  c-1.9101562-0.2695312-3.3505859-1.918457-3.3505859-3.8359375s1.4404297-3.5664062,3.3505859-3.8359375  c0.4936523-0.0698242,0.8603516-0.4921875,0.8603516-0.9902344v-6.3110352c0-0.4980469-0.3666992-0.9204102-0.8603516-0.9902344  c-1.9101562-0.2695312-3.3505859-1.9189453-3.3505859-3.8359375s1.4404297-3.565918,3.3510742-3.8359375  c0.4931641-0.0698242,0.8598633-0.4921875,0.8598633-0.9902344v-6.3105469c0-0.4980469-0.3666992-0.9204102-0.8598633-0.9902344  c-1.9106445-0.2700195-3.3510742-1.9189453-3.3510742-3.8359375s1.4404297-3.5664062,3.3505859-3.8359375  c0.4936523-0.0698242,0.8603516-0.4921875,0.8603516-0.9902344v-6.3110352c0-0.4980469-0.3666992-0.9204102-0.8603516-0.9902344  c-1.9101562-0.2695312-3.3505859-1.918457-3.3505859-3.8359375s1.4404297-3.5664062,3.3505859-3.8359375  c0.4936523-0.0698242,0.8603516-0.4921875,0.8603516-0.9902344V16c0-0.5522461-0.4477539-1-1-1c-2.2055664,0-4-1.7944336-4-4  c0-0.5522461-0.4477539-1-1-1h-6.6499023c-0.4838867,0-0.8979492,0.3461914-0.9838867,0.8222656  c-0.3354492,1.8535156-1.9433594,3.1992188-3.8232422,3.1992188s-3.4882812-1.3457031-3.8237305-3.199707  C63.0537109,10.3461914,62.6391602,10,62.1557617,10h-7.3486328c-0.4838867,0-0.8979492,0.3461914-0.9838867,0.8222656  C53.487793,12.6757812,51.8798828,14.0214844,50,14.0214844s-3.487793-1.3457031-3.8232422-3.1992188  C46.0908203,10.3461914,45.6767578,10,45.1928711,10h-7.3486328c-0.4833984,0-0.8979492,0.3461914-0.9838867,0.8217773  c-0.3354492,1.8540039-1.9438477,3.199707-3.8237305,3.199707s-3.487793-1.3457031-3.8232422-3.1992188  C29.1274414,10.3461914,28.7133789,10,28.2294922,10h-6.6499023c-0.5522461,0-1,0.4477539-1,1c0,2.2055664-1.7944336,4-4,4  c-0.5522461,0-1,0.4477539-1,1v5.2290039c0,0.4980469,0.3666992,0.9204102,0.8603516,0.9902344  c1.9101562,0.2695312,3.3505859,1.918457,3.3505859,3.8359375s-1.4404297,3.5664062-3.3505859,3.8359375  c-0.4936523,0.0698242-0.8603516,0.4921875-0.8603516,0.9902344v6.3110352c0,0.4980469,0.3666992,0.9204102,0.8603516,0.9902344  c1.9101562,0.2695312,3.3505859,1.9189453,3.3505859,3.8359375s-1.4404297,3.565918-3.3510742,3.8359375  c-0.4931641,0.0698242-0.8598633,0.4921875-0.8598633,0.9902344v6.3105469c0,0.4980469,0.3666992,0.9204102,0.8598633,0.9902344  c1.9106445,0.2700195,3.3510742,1.9189453,3.3510742,3.8359375s-1.4404297,3.5664062-3.3505859,3.8359375  c-0.4936523,0.0698242-0.8603516,0.4921875-0.8603516,0.9902344v6.3110352c0,0.4980469,0.3666992,0.9204102,0.8603516,0.9902344  c1.9101562,0.2695312,3.3505859,1.918457,3.3505859,3.8359375s-1.4404297,3.5664062-3.3505859,3.8359375  c-0.4936523,0.0698242-0.8603516,0.4921875-0.8603516,0.9902344V84C15.5795898,84.5522461,16.0273438,85,16.5795898,85z   M17.5795898,79.5727539c2.4526367-0.7333984,4.2109375-3.0166016,4.2109375-5.6279297s-1.7583008-4.8945312-4.2109375-5.6279297  V63.609375c2.4526367-0.7333984,4.2109375-3.0166016,4.2109375-5.6279297c0-2.6108398-1.7583008-4.894043-4.2109375-5.6279297  v-4.7070312c2.4526367-0.7338867,4.2109375-3.0170898,4.2109375-5.6279297c0-2.6113281-1.7583008-4.8945312-4.2109375-5.6279297  v-4.7075195c2.4526367-0.7333984,4.2109375-3.0166016,4.2109375-5.6279297s-1.7583008-4.8945312-4.2109375-5.6279297v-3.5107422  C20.0883789,16.4941406,22.0737305,14.5087891,22.4960938,12h4.9594727c0.7915039,2.3735352,3.019043,4.0214844,5.5810547,4.0214844  c2.5615234,0,4.7895508-1.6479492,5.581543-4.0214844h5.8007812C45.2104492,14.3735352,47.4379883,16.0214844,50,16.0214844  S54.7895508,14.3735352,55.5810547,12h5.8007812c0.7919922,2.3735352,3.0200195,4.0214844,5.581543,4.0214844  c2.5620117,0,4.7895508-1.6479492,5.5810547-4.0214844h4.9594727c0.4223633,2.5087891,2.4077148,4.4941406,4.9165039,4.9165039  v3.5107422c-2.4526367,0.7333984-4.2109375,3.0166016-4.2109375,5.6279297s1.7583008,4.8945312,4.2109375,5.6279297v4.7075195  c-2.4526367,0.7333984-4.2109375,3.0166016-4.2109375,5.6279297c0,2.6108398,1.7583008,4.894043,4.2109375,5.6279297v4.7070312  c-2.4526367,0.7338867-4.2109375,3.0170898-4.2109375,5.6279297c0,2.6113281,1.7583008,4.8945312,4.2109375,5.6279297v4.7075195  c-2.4526367,0.7333984-4.2109375,3.0166016-4.2109375,5.6279297s1.7583008,4.8945312,4.2109375,5.6279297v3.5107422  C79.9116211,83.5058594,77.9262695,85.4912109,77.5039062,88h-4.9594727  c-0.7915039-2.3735352-3.019043-4.0214844-5.5810547-4.0214844c-2.5615234,0-4.7895508,1.6479492-5.581543,4.0214844h-5.8007812  C54.7895508,85.6264648,52.5620117,83.9785156,50,83.9785156S45.2104492,85.6264648,44.4189453,88h-5.8007812  c-0.7919922-2.3735352-3.0200195-4.0214844-5.581543-4.0214844c-2.5620117,0-4.7895508,1.6479492-5.5810547,4.0214844h-4.9594727  c-0.4223633-2.5087891-2.4077148-4.4941406-4.9165039-4.9165039V79.5727539z"/></svg>
